<svg width="31" height="31" viewBox="0 0 31 31" fill="none" xmlns="http://www.w3.org/2000/svg">
<path d="M18.0833 29.3854H12.9167C5.90292 29.3854 2.90625 26.3887 2.90625 19.375V11.625C2.90625 4.61123 5.90292 1.61456 12.9167 1.61456H18.0833C25.0971 1.61456 28.0938 4.61123 28.0938 11.625V19.375C28.0938 26.3887 25.0971 29.3854 18.0833 29.3854ZM12.9167 3.55206C6.96208 3.55206 4.84375 5.6704 4.84375 11.625V19.375C4.84375 25.3296 6.96208 27.4479 12.9167 27.4479H18.0833C24.0379 27.4479 26.1562 25.3296 26.1562 19.375V11.625C26.1562 5.6704 24.0379 3.55206 18.0833 3.55206H12.9167Z" fill="currentColor"/>
<path d="M19.375 13.9887H11.625C10.0233 13.9887 8.71875 12.6842 8.71875 11.0825V9.79083C8.71875 8.18917 10.0233 6.88458 11.625 6.88458H19.375C20.9767 6.88458 22.2812 8.18917 22.2812 9.79083V11.0825C22.2812 12.6842 20.9767 13.9887 19.375 13.9887ZM11.625 8.82208C11.0954 8.82208 10.6562 9.26125 10.6562 9.79083V11.0825C10.6562 11.6121 11.0954 12.0512 11.625 12.0512H19.375C19.9046 12.0512 20.3438 11.6121 20.3438 11.0825V9.79083C20.3438 9.26125 19.9046 8.82208 19.375 8.82208H11.625Z" fill="currentColor"/>
<path d="M10.5268 19.2717C10.3589 19.2717 10.191 19.2329 10.036 19.1683C9.88096 19.1038 9.73888 19.0133 9.62263 18.8971C9.37721 18.6517 9.24805 18.3288 9.24805 17.98C9.24805 17.8121 9.27388 17.6442 9.33846 17.4892C9.40305 17.3212 9.49346 17.1921 9.62263 17.0629C9.6743 17.0112 9.73888 16.9467 9.81638 16.9079C9.88096 16.8562 9.95846 16.8175 10.036 16.7917C10.1135 16.7529 10.2039 16.7271 10.2814 16.7142C10.6947 16.6237 11.1468 16.7658 11.4439 17.0629C11.5601 17.1792 11.6635 17.3212 11.728 17.4892C11.7926 17.6442 11.8314 17.8121 11.8314 17.98C11.8314 18.3288 11.6893 18.6517 11.4439 18.8971C11.1985 19.1425 10.8755 19.2717 10.5268 19.2717Z" fill="currentColor"/>
<path d="M15.7067 19.2717C15.358 19.2717 15.035 19.1425 14.7896 18.8971C14.5442 18.6517 14.415 18.3288 14.415 17.98C14.415 17.8121 14.4409 17.6442 14.5055 17.4892C14.57 17.3213 14.6605 17.1921 14.7896 17.0629C14.8413 17.0113 14.9059 16.9467 14.9834 16.9079C15.048 16.8563 15.1255 16.8175 15.203 16.7917C15.2805 16.7529 15.3709 16.7271 15.4484 16.7142C15.6938 16.6625 15.9521 16.6884 16.1975 16.7917C16.3525 16.8563 16.4946 16.9467 16.6109 17.0629C16.7271 17.1921 16.8305 17.3213 16.895 17.4892C16.9596 17.6442 16.9984 17.8121 16.9984 17.98C16.9984 18.3288 16.8563 18.6517 16.6109 18.8971C16.3655 19.1425 16.0425 19.2717 15.7067 19.2717Z" fill="currentColor"/>
<path d="M20.8608 19.2717C20.6929 19.2717 20.5249 19.2329 20.3699 19.1683C20.2149 19.1037 20.0729 19.0133 19.9566 18.8971C19.8274 18.7679 19.737 18.6258 19.6724 18.4708C19.6079 18.3158 19.582 18.1479 19.582 17.98C19.582 17.8121 19.6079 17.6442 19.6724 17.4892C19.737 17.3212 19.8274 17.1921 19.9566 17.0629C20.4345 16.585 21.2999 16.585 21.7779 17.0629C22.0233 17.3083 22.1654 17.6442 22.1654 17.98C22.1654 18.3287 22.0233 18.6517 21.7779 18.8971C21.5454 19.1296 21.2224 19.2717 20.8608 19.2717Z" fill="currentColor"/>
<path d="M10.5399 24.4383C10.1912 24.4383 9.86827 24.3092 9.62285 24.0637C9.37743 23.8183 9.23535 23.4954 9.23535 23.1467C9.23535 22.8108 9.37743 22.475 9.62285 22.2296C9.67452 22.1779 9.75202 22.1133 9.8166 22.0746C9.88118 22.0229 9.95868 21.9842 10.0362 21.9583C10.1137 21.9196 10.2041 21.8937 10.2816 21.8808C10.7079 21.8033 11.147 21.9325 11.4441 22.2296C11.5087 22.2942 11.5604 22.3587 11.612 22.4233C11.6508 22.5008 11.6895 22.5783 11.7283 22.6558C11.7541 22.7333 11.7799 22.8108 11.8058 22.8883C11.8187 22.9787 11.8316 23.0562 11.8316 23.1467C11.8316 23.4954 11.6895 23.8183 11.4441 24.0637C11.1987 24.3092 10.8758 24.4383 10.5399 24.4383Z" fill="currentColor"/>
<path d="M15.7069 24.4383C15.3582 24.4383 15.0353 24.3092 14.7898 24.0637C14.5444 23.8183 14.4023 23.4954 14.4023 23.1467C14.4023 22.8108 14.5444 22.475 14.7898 22.2296C15.0869 21.9325 15.539 21.8033 15.9523 21.8808C16.0298 21.8937 16.1203 21.9196 16.1978 21.9583C16.2753 21.9842 16.3528 22.0229 16.4173 22.0746C16.4819 22.1133 16.5465 22.1779 16.6111 22.2296C16.8565 22.475 16.9857 22.8108 16.9857 23.1467C16.9857 23.4954 16.8565 23.8183 16.6111 24.0637C16.3657 24.3092 16.0428 24.4383 15.7069 24.4383Z" fill="currentColor"/>
<path d="M20.8608 24.4383C20.5249 24.4383 20.202 24.3092 19.9566 24.0638C19.7112 23.8183 19.582 23.4954 19.582 23.1467C19.582 22.8108 19.7112 22.475 19.9566 22.2296C20.0729 22.1133 20.2149 22.0229 20.3699 21.9583C20.8479 21.7646 21.4291 21.8679 21.7779 22.2296C22.0233 22.475 22.1524 22.8108 22.1524 23.1467C22.1524 23.4954 22.0233 23.8183 21.7779 24.0638C21.6616 24.18 21.5195 24.2704 21.3645 24.335C21.2095 24.3996 21.0416 24.4383 20.8608 24.4383Z" fill="currentColor"/>
</svg>
