<svg width="29" height="29" viewBox="0 0 29 29" fill="none" xmlns="http://www.w3.org/2000/svg">
<path d="M21.0857 27.4896C19.7203 27.4896 18.2824 27.1634 16.7962 26.535C15.3462 25.9188 13.8841 25.0729 12.4582 24.0459C11.0445 23.0067 9.67908 21.8467 8.38616 20.5779C7.10533 19.285 5.94533 17.9196 4.91824 16.5179C3.87908 15.0679 3.04533 13.6179 2.45324 12.2163C1.82491 10.7179 1.51074 9.26794 1.51074 7.90252C1.51074 6.96002 1.67991 6.06585 2.00616 5.2321C2.34449 4.37419 2.88824 3.57669 3.62533 2.88794C4.55574 1.9696 5.61908 1.51044 6.75491 1.51044C7.22616 1.51044 7.70949 1.61919 8.12033 1.81252C8.59158 2.03002 8.99033 2.35627 9.28033 2.79127L12.0837 6.74252C12.3374 7.09294 12.5307 7.43127 12.6637 7.7696C12.8207 8.1321 12.9053 8.4946 12.9053 8.84502C12.9053 9.30419 12.7724 9.75127 12.5187 10.1742C12.3374 10.5004 12.0595 10.8509 11.7091 11.2013L10.8874 12.0592C10.8995 12.0954 10.9116 12.1196 10.9237 12.1438C11.0687 12.3975 11.3587 12.8325 11.9145 13.485C12.5066 14.1617 13.0624 14.7779 13.6182 15.3459C14.3312 16.0467 14.9232 16.6025 15.4791 17.0617C16.1678 17.6417 16.6149 17.9317 16.8807 18.0646L16.8566 18.125L17.7387 17.255C18.1132 16.8804 18.4757 16.6025 18.8262 16.4213C19.4907 16.0104 20.3366 15.9379 21.1824 16.2884C21.4966 16.4213 21.8349 16.6025 22.1974 16.8563L26.2091 19.7079C26.6562 20.01 26.9824 20.3967 27.1757 20.8559C27.357 21.315 27.4416 21.7379 27.4416 22.1609C27.4416 22.7409 27.3087 23.3209 27.0549 23.8646C26.8012 24.4084 26.487 24.8796 26.0882 25.3146C25.3995 26.0759 24.6503 26.6196 23.7803 26.97C22.9466 27.3084 22.0403 27.4896 21.0857 27.4896ZM6.75491 3.32294C6.09033 3.32294 5.47408 3.61294 4.88199 4.19294C4.32616 4.71252 3.93949 5.28044 3.69783 5.89669C3.44408 6.52502 3.32324 7.1896 3.32324 7.90252C3.32324 9.02627 3.58908 10.2467 4.12074 11.5034C4.66449 12.7842 5.42574 14.1134 6.39241 15.4425C7.35908 16.7717 8.45866 18.0646 9.66699 19.285C10.8753 20.4813 12.1803 21.5929 13.5216 22.5717C14.8266 23.5263 16.1678 24.2996 17.497 24.8554C19.5632 25.7375 21.4966 25.9429 23.0916 25.2784C23.7078 25.0246 24.2516 24.6379 24.747 24.0821C25.0249 23.78 25.2424 23.4538 25.4237 23.0671C25.5687 22.765 25.6412 22.4509 25.6412 22.1367C25.6412 21.9434 25.6049 21.75 25.5082 21.5325C25.472 21.46 25.3995 21.3271 25.1699 21.17L21.1582 18.3184C20.9166 18.1492 20.6991 18.0284 20.4937 17.9438C20.2278 17.835 20.1191 17.7263 19.7082 17.98C19.4666 18.1009 19.2491 18.2821 19.0074 18.5238L18.0891 19.43C17.6178 19.8892 16.8928 19.9979 16.337 19.7925L16.0107 19.6475C15.5153 19.3817 14.9353 18.9709 14.2949 18.4271C13.7149 17.9317 13.0866 17.3517 12.3253 16.6025C11.7332 15.9984 11.1412 15.3579 10.5249 14.645C9.95699 13.9804 9.54616 13.4125 9.29241 12.9413L9.14741 12.5788C9.07491 12.3009 9.05074 12.1438 9.05074 11.9746C9.05074 11.5396 9.20783 11.1529 9.50991 10.8509L10.4162 9.90835C10.6578 9.66669 10.8391 9.4371 10.9599 9.23169C11.0566 9.0746 11.0928 8.94169 11.0928 8.82085C11.0928 8.72419 11.0566 8.57919 10.9962 8.43419C10.9116 8.24085 10.7787 8.02335 10.6095 7.79377L7.80616 3.83044C7.68533 3.66127 7.54033 3.54044 7.35908 3.45585C7.16574 3.37127 6.96033 3.32294 6.75491 3.32294ZM16.8566 18.1371L16.6632 18.9588L16.9895 18.1129C16.9291 18.1009 16.8807 18.1129 16.8566 18.1371Z" fill="currentColor"/>
<path d="M22.3542 11.7812C21.8587 11.7812 21.4479 11.3704 21.4479 10.875C21.4479 10.44 21.0129 9.53373 20.2879 8.7604C19.575 7.99915 18.7896 7.55206 18.125 7.55206C17.6296 7.55206 17.2188 7.14123 17.2188 6.64581C17.2188 6.1504 17.6296 5.73956 18.125 5.73956C19.2971 5.73956 20.5296 6.3679 21.605 7.51581C22.6079 8.59123 23.2604 9.90831 23.2604 10.875C23.2604 11.3704 22.8496 11.7812 22.3542 11.7812Z" fill="currentColor"/>
<path d="M26.5833 11.7813C26.0879 11.7813 25.6771 11.3704 25.6771 10.875C25.6771 6.70627 22.2938 3.32294 18.125 3.32294C17.6296 3.32294 17.2188 2.9121 17.2188 2.41669C17.2188 1.92127 17.6296 1.51044 18.125 1.51044C23.2846 1.51044 27.4896 5.71544 27.4896 10.875C27.4896 11.3704 27.0788 11.7813 26.5833 11.7813Z" fill="currentColor"/>
</svg>
