<svg width="32" height="38" viewBox="0 0 32 38" fill="none" xmlns="http://www.w3.org/2000/svg">
<g clip-path="url(#clip0_401_2611)">
<path d="M2.08658 32.1918C1.74116 32.1451 1.43719 32.1384 1.15394 32.0517C0.442368 31.838 0.00713447 31.2639 0.00713447 30.5495C0.000226009 27.2382 0.000226009 23.9202 0.00713447 20.6089C0.00713447 19.7077 0.725615 19.0467 1.65826 19.0267C1.78261 19.0267 1.90696 19.0267 2.08658 19.0267C2.08658 18.8598 2.08658 18.7196 2.08658 18.5794C2.08658 13.7927 2.08658 9.01265 2.08658 4.22593C2.08658 1.76247 3.90351 0.00667604 6.45964 0.00667604C11.5374 0.00667604 16.6151 0.00667604 21.6928 0C21.9484 0 22.1419 0.0600843 22.3284 0.240337C25.4579 3.27126 28.5944 6.2955 31.7377 9.31307C31.9242 9.48665 32.0071 9.66022 32.0071 9.92059C32.0002 17.8985 32.0002 25.8763 32.0002 33.8542C32.0002 35.7635 30.9018 37.2456 29.0365 37.8264C28.6703 37.9399 28.2697 37.9933 27.8828 37.9933C20.6634 38 13.4441 38.0067 6.22475 38C3.94496 38 2.11422 36.2041 2.08658 34.0011C2.07967 33.3935 2.08658 32.7927 2.08658 32.1918ZM4.64962 19.0267C4.84997 19.0267 4.99505 19.0267 5.14012 19.0267C11.6479 19.0267 18.1488 19.0267 24.6565 19.0267C25.7135 19.0267 26.4044 19.6676 26.4113 20.6757C26.4182 23.9469 26.4182 27.2182 26.4044 30.4895C26.4044 30.7565 26.3353 31.0502 26.2109 31.2906C25.8724 31.9315 25.2783 32.1585 24.5529 32.1585C18.0797 32.1518 11.6134 32.1518 5.14012 32.1518C4.98123 32.1518 4.82924 32.1518 4.64271 32.1518C4.64271 32.7593 4.6358 33.3201 4.64271 33.8742C4.64962 34.889 5.31974 35.5365 6.37674 35.5432C13.4925 35.5432 20.6082 35.5432 27.7239 35.5432C28.7809 35.5432 29.4441 34.8956 29.4441 33.8742C29.4234 26.2301 29.4096 18.5861 29.3888 10.942C29.3888 10.8219 29.375 10.7084 29.3681 10.5615C29.2092 10.5615 29.0849 10.5615 28.9605 10.5615C27.3716 10.5615 25.7826 10.5281 24.1937 10.5815C22.5287 10.6416 21.0572 9.37983 21.1125 7.61736C21.1609 6.04849 21.1194 4.47962 21.1194 2.91075C21.1194 2.77723 21.1194 2.65039 21.1194 2.48349C20.9398 2.48349 20.8085 2.48349 20.6704 2.48349C15.9381 2.48349 11.2058 2.49016 6.47346 2.49016C5.2852 2.49016 4.64271 3.11103 4.64271 4.25931C4.64271 9.04603 4.64271 13.8261 4.64271 18.6128C4.64962 18.7263 4.64962 18.8465 4.64962 19.0267ZM10.5218 29.1743C12.0071 29.2811 13.451 29.4079 14.8396 28.8405C15.717 28.4866 16.3249 27.8591 16.5805 26.9779C16.7187 26.5039 16.7878 25.9965 16.7947 25.5025C16.8016 23.78 15.7308 22.565 13.9553 22.3847C12.9674 22.2846 11.9588 22.3714 10.964 22.3647C10.6254 22.358 10.5149 22.4649 10.5218 22.812C10.5425 24.8015 10.5287 26.7976 10.5287 28.7871C10.5218 28.9006 10.5218 29.0207 10.5218 29.1743ZM6.02441 26.7776C6.2662 26.7776 6.47346 26.8043 6.6738 26.7709C7.19884 26.6774 7.74461 26.6174 8.24202 26.4371C9.08486 26.1233 9.55463 25.3022 9.52009 24.3742C9.49246 23.4729 8.98814 22.7786 8.09004 22.4982C7.71698 22.3781 7.30247 22.3113 6.90869 22.3046C6.08658 22.2913 5.26447 22.338 4.43546 22.3647C4.43546 24.688 4.43546 26.9245 4.43546 29.1743C4.96741 29.1743 5.47864 29.1743 6.0175 29.1743C6.02441 28.3598 6.02441 27.5787 6.02441 26.7776ZM19.5028 23.5998C20.4078 23.5998 21.2921 23.5998 22.1695 23.5998C22.1695 23.1525 22.1695 22.7519 22.1695 22.338C20.7325 22.338 19.3232 22.338 17.8931 22.338C17.8931 24.6279 17.8931 26.8977 17.8931 29.1609C18.4389 29.1609 18.9432 29.1609 19.5028 29.1609C19.5028 28.2396 19.5028 27.345 19.5028 26.4171C20.3664 26.4171 21.1885 26.4171 22.0175 26.4171C22.0175 25.9831 22.0175 25.5892 22.0175 25.1553C21.1747 25.1553 20.3457 25.1553 19.5097 25.1553C19.5028 24.6412 19.5028 24.1539 19.5028 23.5998Z" fill="white"/>
<path d="M12.1582 23.5331C12.8283 23.4463 13.4501 23.4329 14.0442 23.7133C14.5347 23.947 14.9078 24.3342 14.9769 24.8482C15.0528 25.4224 15.0805 26.0366 14.9492 26.5907C14.7351 27.5187 13.9268 28.0194 12.849 28.0461C12.1582 28.0661 12.1582 28.0661 12.1582 27.4118C12.1582 26.2435 12.1582 25.0752 12.1582 23.9069C12.1582 23.7934 12.1582 23.6733 12.1582 23.5331Z" fill="white"/>
<path d="M6.03125 25.4957C6.03125 24.8481 6.03125 24.2006 6.03125 23.553C6.68065 23.3394 7.41985 23.4796 7.72382 23.8601C7.97944 24.1872 7.97944 24.7614 7.71691 25.1085C7.41294 25.5024 6.65301 25.6827 6.03125 25.4957Z" fill="white"/>
</g>
<defs>
<clipPath id="clip0_401_2611">
<rect width="32" height="38" fill="white"/>
</clipPath>
</defs>
</svg>
