<svg width="15" height="23" viewBox="0 0 15 23" fill="none" xmlns="http://www.w3.org/2000/svg">
<path d="M7.76488 0.00479381C3.50132 -0.152616 0 3.58683 0 8.2221C0 13.4826 4.60812 17.3004 7.19096 22.7907C7.3221 23.0695 7.6884 23.0699 7.81999 22.7911C10.1565 17.8509 14.15 14.5382 14.8901 9.77882C15.6564 4.85381 12.3226 0.17313 7.76488 0.00479381ZM7.50511 12.5289C5.33398 12.5289 3.57388 10.6006 3.57388 8.2221C3.57388 5.84363 5.33402 3.91535 7.50511 3.91535C9.67623 3.91535 11.4364 5.84363 11.4364 8.2221C11.4364 10.6006 9.67623 12.5289 7.50511 12.5289Z" fill="currentColor"/>
</svg>
