<svg width="18" height="16" viewBox="0 0 18 16" fill="none" xmlns="http://www.w3.org/2000/svg">
<path d="M0.313718 7.491L4.42693 9.02474L6.03037 14.1837C6.10009 14.5322 6.51838 14.602 6.79724 14.3928L9.09783 12.5105C9.30698 12.3014 9.65556 12.3014 9.93443 12.5105L14.0476 15.5082C14.3265 15.7174 14.7448 15.578 14.8145 15.2294L17.882 0.589198C17.9517 0.240622 17.6031 -0.107951 17.2545 0.0314796L0.313718 6.58471C-0.104573 6.72414 -0.104573 7.35157 0.313718 7.491ZM5.82123 8.25787L13.9082 3.30809C14.0476 3.23838 14.187 3.44752 14.0476 3.51724L7.42467 9.72189C7.21553 9.93104 7.00638 10.2099 7.00638 10.5585L6.79724 12.2316C6.79724 12.4408 6.44866 12.5105 6.37895 12.2316L5.54236 9.16417C5.33321 8.81559 5.47266 8.3973 5.82123 8.25787Z" fill="currentColor"/>
</svg>
