<svg width="36" height="36" viewBox="0 0 36 36" fill="none" xmlns="http://www.w3.org/2000/svg">
<circle cx="17.8909" cy="17.8909" r="17.8909" fill="currentColor"/>
<path d="M26.6626 22.4668C26.6626 22.3925 26.5884 22.3925 26.5884 22.3182C26.2913 21.7241 25.6229 20.9814 24.7317 20.1645C24.286 19.7931 24.0632 19.496 23.9147 19.3475C23.6919 19.0504 23.6919 18.8276 23.7662 18.5306C23.8405 18.3078 24.1375 17.9364 24.6574 17.268C24.9545 16.8967 25.103 16.6739 25.3258 16.4511C26.4398 14.9657 26.9597 14.0002 26.8111 13.5546L26.7369 13.4803C26.6626 13.4061 26.5883 13.3318 26.4398 13.3318C26.2913 13.2575 26.0685 13.2575 25.8457 13.3318H23.0235C22.9492 13.3318 22.9492 13.3318 22.8007 13.3318C22.7264 13.3318 22.6522 13.3318 22.6522 13.3318H22.5779H22.5036L22.4293 13.4061C22.3551 13.4803 22.3551 13.4803 22.3551 13.5546C22.058 14.3716 21.6867 15.04 21.3153 15.7826C21.0925 16.154 20.8697 16.5253 20.6469 16.8224C20.4241 17.1195 20.2756 17.3423 20.127 17.4908C19.9785 17.6393 19.83 17.7136 19.7557 17.8621C19.6814 17.9364 19.5329 18.0107 19.5329 17.9364C19.4586 17.9364 19.3844 17.9364 19.3844 17.8621C19.3101 17.7879 19.2358 17.7136 19.1616 17.6393C19.0873 17.5651 19.0873 17.4165 19.013 17.268C19.013 17.1195 19.013 16.9709 19.013 16.8967C19.013 16.8224 19.013 16.5996 19.013 16.4511C19.013 16.2283 19.013 16.0797 19.013 16.0055C19.013 15.7826 19.013 15.4856 19.013 15.1885C19.013 14.8914 19.013 14.6686 19.013 14.5201C19.013 14.3716 19.013 14.1488 19.013 14.0002C19.013 13.7774 19.013 13.6289 19.013 13.5546C19.013 13.4803 18.9388 13.3318 18.9388 13.2575C18.8645 13.1833 18.7902 13.109 18.716 13.0347C18.6417 12.9605 18.4932 12.9605 18.4189 12.8862C18.0475 12.8119 17.602 12.7377 17.0821 12.7377C15.8938 12.7377 15.0768 12.8119 14.7798 12.9605C14.6312 13.0347 14.4827 13.109 14.4084 13.2575C14.2599 13.4061 14.2599 13.4803 14.3342 13.4803C14.7055 13.5546 15.0026 13.7031 15.1511 13.9259L15.2254 14.0745C15.2996 14.1488 15.2996 14.2973 15.3739 14.5201C15.4482 14.7429 15.4482 14.9657 15.4482 15.2628C15.4482 15.7084 15.4482 16.154 15.4482 16.4511C15.4482 16.8224 15.3739 17.0452 15.3739 17.268C15.3739 17.4908 15.2996 17.6393 15.2254 17.7136C15.1511 17.8622 15.1511 17.9364 15.0768 17.9364C15.0768 17.9364 15.0768 18.0107 15.0026 18.0107C14.9283 18.0107 14.854 18.085 14.7055 18.085C14.6312 18.085 14.4827 18.0107 14.4084 17.9364C14.2599 17.8622 14.1114 17.7136 14.0371 17.5651C13.8886 17.4165 13.74 17.1937 13.5915 16.8967C13.4429 16.5996 13.2201 16.3025 13.0716 15.8569L12.9231 15.5599C12.8488 15.4113 12.7003 15.1142 12.5517 14.7429C12.4032 14.3716 12.2547 14.0745 12.1061 13.7032C12.0319 13.5546 11.9576 13.4803 11.8833 13.4061H11.8091C11.8091 13.4061 11.7348 13.3318 11.6605 13.3318C11.5862 13.3318 11.512 13.2575 11.4377 13.2575H8.76407C8.467 13.2575 8.31846 13.3318 8.24419 13.4061L8.16992 13.4803C8.16992 13.4803 8.16992 13.5546 8.16992 13.6289C8.16992 13.7032 8.16993 13.7774 8.24419 13.9259C8.61553 14.8172 9.06114 15.7084 9.50675 16.5996C9.95235 17.4165 10.398 18.1592 10.695 18.6791C11.0664 19.199 11.3634 19.7188 11.7348 20.1645C12.1061 20.6101 12.3289 20.9071 12.4032 21.0557C12.5517 21.2042 12.626 21.2785 12.7003 21.3527L12.9231 21.5755C13.0716 21.7241 13.2944 21.9469 13.5915 22.1697C13.8885 22.3925 14.2599 22.6153 14.6312 22.8381C15.0026 23.0609 15.4482 23.2094 15.8938 23.358C16.4137 23.5065 16.8593 23.5808 17.3049 23.5065H18.4189C18.6417 23.5065 18.7902 23.4322 18.9388 23.2837L19.013 23.2094C19.013 23.1352 19.0873 23.1352 19.0873 23.0609C19.0873 22.9866 19.0873 22.9124 19.0873 22.7638C19.0873 22.4668 19.0873 22.244 19.1616 22.0212C19.2358 21.7983 19.2358 21.6498 19.3101 21.5013C19.3844 21.3527 19.4586 21.2785 19.5329 21.2042C19.6072 21.1299 19.6814 21.0557 19.6814 21.0557H19.7557C19.9042 20.9814 20.127 21.0557 20.2756 21.2042C20.4984 21.3527 20.7212 21.5755 20.8697 21.7983C21.0183 22.0212 21.2411 22.244 21.5381 22.541C21.8352 22.8381 22.058 23.0609 22.2066 23.1352L22.4293 23.2837C22.5779 23.358 22.7264 23.4322 22.9492 23.5065C23.172 23.5808 23.3206 23.5808 23.4691 23.5808L25.9942 23.5065C26.217 23.5065 26.4398 23.4322 26.5884 23.358C26.7369 23.2837 26.8111 23.2094 26.8111 23.0609C26.8111 22.9866 26.8111 22.8381 26.8111 22.7638C26.6626 22.6153 26.6626 22.541 26.6626 22.4668Z" fill="white"/>
</svg>
