<svg width="17" height="17" viewBox="0 0 17 17" fill="none" xmlns="http://www.w3.org/2000/svg">
<path d="M14.1209 2.66481C12.5648 1.12236 10.4898 0.265442 8.29966 0.265442C3.74637 0.265442 0.0576356 3.92162 0.0576356 8.43472C0.0576356 9.86292 0.461092 11.2911 1.15273 12.4908L0 16.7183L4.38038 15.5757C5.59074 16.2041 6.91638 16.5469 8.29966 16.5469C12.8529 16.5469 16.5417 12.8907 16.5417 8.3776C16.484 6.26387 15.6771 4.20726 14.1209 2.66481ZM12.2766 11.3482C12.1037 11.8053 11.2968 12.2623 10.8933 12.3194C10.5475 12.3765 10.0864 12.3765 9.6253 12.2623C9.33712 12.148 8.93366 12.0338 8.47257 11.8053C6.39765 10.9484 5.07201 8.89175 4.95674 8.72036C4.84147 8.60611 4.09219 7.63493 4.09219 6.60663C4.09219 5.57833 4.61092 5.12131 4.78383 4.8928C4.95674 4.66429 5.18729 4.66429 5.3602 4.66429C5.47547 4.66429 5.64838 4.66429 5.76365 4.66429C5.87892 4.66429 6.05183 4.60716 6.22474 5.00705C6.39765 5.40695 6.80111 6.43525 6.85874 6.49238C6.91638 6.60663 6.91638 6.72089 6.85874 6.83515C6.80111 6.9494 6.74347 7.06366 6.6282 7.17791C6.51292 7.29217 6.39765 7.46355 6.34001 7.52068C6.22474 7.63493 6.10947 7.74919 6.22474 7.92057C6.34002 8.14909 6.74347 8.77749 7.37747 9.34877C8.18438 10.0343 8.81839 10.2628 9.04893 10.3771C9.27948 10.4913 9.39475 10.4342 9.51002 10.3199C9.6253 10.2057 10.0288 9.74867 10.144 9.52015C10.2593 9.29164 10.4322 9.34877 10.6051 9.4059C10.778 9.46303 11.8155 9.97718 11.9884 10.0914C12.2189 10.2057 12.3342 10.2628 12.3918 10.3199C12.4495 10.4913 12.4495 10.8912 12.2766 11.3482Z" fill="currentColor"/>
</svg>
