<svg width="29" height="30" viewBox="0 0 29 30" fill="none" xmlns="http://www.w3.org/2000/svg">
<path d="M21.4879 17.8516C16.2632 17.8781 15.418 21.1407 15.1363 23.8993L15.0083 25.1194H13.9581L13.8301 23.8993C13.5484 21.1407 12.6776 17.8781 7.63216 17.8516C6.787 16.0478 6.42844 14.5889 6.42844 12.9443C6.42844 8.83301 9.68111 4.98674 14.496 4.98674C19.3109 4.98674 22.5123 8.80634 22.5123 12.971C22.5123 14.5889 22.3587 16.0478 21.4879 17.8516ZM14.4448 0C6.50535 0 0 6.73746 0 14.9867C0 23.2627 6.50535 30 14.4448 30C22.4611 30 28.9408 23.2627 28.9408 14.9867C28.9408 6.73748 22.4611 0 14.4448 0Z" fill="#29B24A"/>
</svg>
