<svg width="36" height="36" viewBox="0 0 36 36" fill="none" xmlns="http://www.w3.org/2000/svg">
<circle cx="17.8909" cy="17.8909" r="17.8909" fill="#2F89CE"/>
<path d="M8.3645 18.2256L12.4777 19.7593L14.0812 24.9182C14.1509 25.2668 14.5692 25.3365 14.848 25.1274L17.1486 23.2451C17.3578 23.0359 17.7063 23.0359 17.9852 23.2451L22.0984 26.2428C22.3773 26.452 22.7956 26.3125 22.8653 25.9639L25.9327 11.3238C26.0024 10.9752 25.6539 10.6266 25.3053 10.766L8.3645 17.3193C7.94621 17.4587 7.94621 18.0861 8.3645 18.2256ZM13.872 18.9924L21.959 14.0426C22.0984 13.9729 22.2378 14.1821 22.0984 14.2518L15.4755 20.4564C15.2663 20.6656 15.0572 20.9445 15.0572 21.293L14.848 22.9662C14.848 23.1753 14.4994 23.2451 14.4297 22.9662L13.5931 19.8987C13.384 19.5501 13.5234 19.1319 13.872 18.9924Z" fill="white"/>
</svg>
