<svg width="36" height="36" viewBox="0 0 36 36" fill="none" xmlns="http://www.w3.org/2000/svg">
<circle cx="17.8909" cy="17.8909" r="17.8909" fill="currentColor"/>
<path d="M26.6626 22.4668C26.6626 22.3925 26.5884 22.3925 26.5884 22.3183C26.2913 21.7241 25.6229 20.9815 24.7317 20.1645C24.286 19.7932 24.0632 19.4961 23.9147 19.3476C23.6919 19.0505 23.6919 18.8277 23.7662 18.5306C23.8405 18.3078 24.1375 17.9365 24.6574 17.2681C24.9545 16.8967 25.103 16.6739 25.3258 16.4511C26.4398 14.9658 26.9597 14.0003 26.8111 13.5547L26.7369 13.4804C26.6626 13.4061 26.5883 13.3319 26.4398 13.3319C26.2913 13.2576 26.0685 13.2576 25.8457 13.3319H23.0235C22.9492 13.3319 22.9492 13.3319 22.8007 13.3319C22.7264 13.3319 22.6522 13.3319 22.6522 13.3319H22.5779H22.5036L22.4293 13.4061C22.3551 13.4804 22.3551 13.4804 22.3551 13.5547C22.058 14.3716 21.6867 15.04 21.3153 15.7827C21.0925 16.154 20.8697 16.5254 20.6469 16.8225C20.4241 17.1195 20.2756 17.3423 20.127 17.4909C19.9785 17.6394 19.83 17.7137 19.7557 17.8622C19.6814 17.9365 19.5329 18.0107 19.5329 17.9365C19.4586 17.9365 19.3844 17.9365 19.3844 17.8622C19.3101 17.7879 19.2358 17.7137 19.1616 17.6394C19.0873 17.5651 19.0873 17.4166 19.013 17.2681C19.013 17.1195 19.013 16.971 19.013 16.8967C19.013 16.8225 19.013 16.5997 19.013 16.4511C19.013 16.2283 19.013 16.0798 19.013 16.0055C19.013 15.7827 19.013 15.4856 19.013 15.1886C19.013 14.8915 19.013 14.6687 19.013 14.5202C19.013 14.3716 19.013 14.1488 19.013 14.0003C19.013 13.7775 19.013 13.6289 19.013 13.5547C19.013 13.4804 18.9388 13.3319 18.9388 13.2576C18.8645 13.1833 18.7902 13.1091 18.716 13.0348C18.6417 12.9605 18.4932 12.9605 18.4189 12.8863C18.0475 12.812 17.602 12.7377 17.0821 12.7377C15.8938 12.7377 15.0768 12.812 14.7798 12.9605C14.6312 13.0348 14.4827 13.1091 14.4084 13.2576C14.2599 13.4061 14.2599 13.4804 14.3342 13.4804C14.7055 13.5547 15.0026 13.7032 15.1511 13.926L15.2254 14.0746C15.2996 14.1488 15.2996 14.2974 15.3739 14.5202C15.4482 14.743 15.4482 14.9658 15.4482 15.2628C15.4482 15.7084 15.4482 16.1541 15.4482 16.4511C15.4482 16.8225 15.3739 17.0453 15.3739 17.2681C15.3739 17.4909 15.2996 17.6394 15.2254 17.7137C15.1511 17.8622 15.1511 17.9365 15.0768 17.9365C15.0768 17.9365 15.0768 18.0107 15.0026 18.0107C14.9283 18.0107 14.854 18.085 14.7055 18.085C14.6312 18.085 14.4827 18.0107 14.4084 17.9365C14.2599 17.8622 14.1114 17.7137 14.0371 17.5651C13.8886 17.4166 13.74 17.1938 13.5915 16.8967C13.4429 16.5997 13.2201 16.3026 13.0716 15.857L12.9231 15.5599C12.8488 15.4114 12.7003 15.1143 12.5517 14.743C12.4032 14.3716 12.2547 14.0746 12.1061 13.7032C12.0319 13.5547 11.9576 13.4804 11.8833 13.4061H11.8091C11.8091 13.4061 11.7348 13.3319 11.6605 13.3319C11.5862 13.3319 11.512 13.2576 11.4377 13.2576H8.76407C8.467 13.2576 8.31846 13.3319 8.24419 13.4061L8.16992 13.4804C8.16992 13.4804 8.16992 13.5547 8.16992 13.6289C8.16992 13.7032 8.16993 13.7775 8.24419 13.926C8.61553 14.8172 9.06114 15.7084 9.50675 16.5997C9.95235 17.4166 10.398 18.1593 10.695 18.6792C11.0664 19.199 11.3634 19.7189 11.7348 20.1645C12.1061 20.6101 12.3289 20.9072 12.4032 21.0557C12.5517 21.2043 12.626 21.2785 12.7003 21.3528L12.9231 21.5756C13.0716 21.7241 13.2944 21.9469 13.5915 22.1697C13.8885 22.3926 14.2599 22.6153 14.6312 22.8382C15.0026 23.061 15.4482 23.2095 15.8938 23.358C16.4137 23.5066 16.8593 23.5808 17.3049 23.5066H18.4189C18.6417 23.5066 18.7902 23.4323 18.9388 23.2838L19.013 23.2095C19.013 23.1352 19.0873 23.1352 19.0873 23.061C19.0873 22.9867 19.0873 22.9124 19.0873 22.7639C19.0873 22.4668 19.0873 22.244 19.1616 22.0212C19.2358 21.7984 19.2358 21.6499 19.3101 21.5013C19.3844 21.3528 19.4586 21.2785 19.5329 21.2043C19.6072 21.13 19.6814 21.0557 19.6814 21.0557H19.7557C19.9042 20.9815 20.127 21.0557 20.2756 21.2043C20.4984 21.3528 20.7212 21.5756 20.8697 21.7984C21.0183 22.0212 21.2411 22.244 21.5381 22.5411C21.8352 22.8382 22.058 23.061 22.2066 23.1352L22.4293 23.2838C22.5779 23.358 22.7264 23.4323 22.9492 23.5066C23.172 23.5808 23.3206 23.5808 23.4691 23.5808L25.9942 23.5066C26.217 23.5066 26.4398 23.4323 26.5884 23.358C26.7369 23.2838 26.8111 23.2095 26.8111 23.061C26.8111 22.9867 26.8111 22.8382 26.8111 22.7639C26.6626 22.6154 26.6626 22.5411 26.6626 22.4668Z" fill="white"/>
</svg>
