<svg width="30" height="30" viewBox="0 0 30 30" fill="none" xmlns="http://www.w3.org/2000/svg">
<circle cx="15" cy="15" r="15" fill="#7294C7"/>
<path d="M25.7957 20.6644C25.7957 20.5753 25.7081 20.5753 25.7081 20.4863C25.358 19.774 24.5702 18.8836 23.5198 17.9041C22.9946 17.4589 22.732 17.1027 22.5569 16.9247C22.2943 16.5685 22.2943 16.3014 22.3819 15.9452C22.4694 15.6781 22.8195 15.2329 23.4323 14.4315C23.7824 13.9863 23.9574 13.7192 24.22 13.4521C25.533 11.6712 26.1458 10.5137 25.9707 9.97944L25.8832 9.89041C25.7957 9.80137 25.7081 9.71233 25.533 9.71233C25.358 9.62329 25.0954 9.62329 24.8328 9.71233H21.5066C21.419 9.71233 21.419 9.71233 21.2439 9.71233C21.1564 9.71233 21.0689 9.71233 21.0689 9.71233H20.9814H20.8938L20.8063 9.80136C20.7187 9.89041 20.7187 9.8904 20.7187 9.97944C20.3686 10.9589 19.9309 11.7603 19.4933 12.6507C19.2307 13.0959 18.9681 13.5411 18.7055 13.8973C18.4429 14.2534 18.2678 14.5205 18.0928 14.6986C17.9177 14.8767 17.7426 14.9658 17.6551 15.1438C17.5676 15.2329 17.3925 15.3219 17.3925 15.2329C17.305 15.2329 17.2174 15.2329 17.2174 15.1438C17.1299 15.0548 17.0424 14.9657 16.9548 14.8767C16.8673 14.7877 16.8673 14.6096 16.7798 14.4315C16.7798 14.2534 16.7798 14.0753 16.7798 13.9863C16.7798 13.8973 16.7798 13.6301 16.7798 13.4521C16.7798 13.1849 16.7798 13.0068 16.7798 12.9178C16.7798 12.6507 16.7798 12.2945 16.7798 11.9384C16.7798 11.5822 16.7798 11.3151 16.7798 11.137C16.7798 10.9589 16.7798 10.6918 16.7798 10.5137C16.7798 10.2466 16.7798 10.0685 16.7798 9.97944C16.7798 9.8904 16.6923 9.71233 16.6923 9.62329C16.6047 9.53424 16.5172 9.4452 16.4296 9.35616C16.3421 9.26712 16.167 9.26712 16.0795 9.17808C15.6419 9.08904 15.1167 9 14.5039 9C13.1034 9 12.1405 9.08904 11.7904 9.26713C11.6154 9.35617 11.4403 9.4452 11.3528 9.62329C11.1777 9.80137 11.1777 9.89041 11.2652 9.89041C11.7029 9.97945 12.053 10.1575 12.2281 10.4247L12.3156 10.6027C12.4032 10.6918 12.4031 10.8699 12.4907 11.137C12.5782 11.4041 12.5782 11.6712 12.5782 12.0274C12.5782 12.5616 12.5782 13.0959 12.5782 13.4521C12.5782 13.8973 12.4907 14.1644 12.4907 14.4315C12.4907 14.6986 12.4032 14.8767 12.3156 14.9658C12.2281 15.1438 12.2281 15.2329 12.1405 15.2329C12.1405 15.2329 12.1405 15.3219 12.053 15.3219C11.9655 15.3219 11.8779 15.411 11.7029 15.411C11.6153 15.411 11.4403 15.3219 11.3528 15.2329C11.1777 15.1438 11.0026 14.9658 10.9151 14.7877C10.74 14.6096 10.565 14.3425 10.3899 13.9863C10.2148 13.6301 9.95222 13.274 9.77715 12.7397L9.6021 12.3836C9.51457 12.2055 9.3395 11.8493 9.16444 11.4041C8.98937 10.9589 8.8143 10.6027 8.63924 10.1575C8.5517 9.97946 8.46418 9.89041 8.37665 9.80136H8.28911C8.28911 9.80136 8.20157 9.71233 8.11403 9.71233C8.0265 9.71233 7.93898 9.62329 7.85145 9.62329H4.70026C4.35013 9.62329 4.17507 9.71232 4.08754 9.80136L4 9.89041C4 9.89041 4 9.97945 4 10.0685C4 10.1575 4.00001 10.2466 4.08754 10.4247C4.5252 11.4931 5.0504 12.5616 5.57559 13.6301C6.10079 14.6096 6.62599 15.5 6.97612 16.1233C7.41378 16.7466 7.76391 17.3699 8.20157 17.9041C8.63924 18.4384 8.90183 18.7945 8.98936 18.9726C9.16443 19.1507 9.25195 19.2397 9.33949 19.3288L9.6021 19.5959C9.77717 19.774 10.0398 20.0411 10.3899 20.3082C10.74 20.5753 11.1777 20.8425 11.6153 21.1096C12.053 21.3767 12.5782 21.5548 13.1034 21.7329C13.7161 21.911 14.2413 22 14.7665 21.911H16.0795C16.3421 21.911 16.5172 21.8219 16.6923 21.6438L16.7798 21.5548C16.7798 21.4658 16.8673 21.4658 16.8673 21.3767C16.8673 21.2877 16.8673 21.1986 16.8673 21.0206C16.8673 20.6644 16.8673 20.3973 16.9548 20.1301C17.0424 19.863 17.0424 19.6849 17.1299 19.5069C17.2175 19.3288 17.305 19.2397 17.3925 19.1507C17.48 19.0616 17.5676 18.9726 17.5676 18.9726H17.6551C17.8302 18.8836 18.0928 18.9726 18.2678 19.1507C18.5304 19.3288 18.793 19.5959 18.9681 19.863C19.1432 20.1301 19.4058 20.3973 19.7559 20.7534C20.106 21.1096 20.3686 21.3767 20.5437 21.4658L20.8063 21.6438C20.9813 21.7329 21.1564 21.8219 21.419 21.911C21.6816 22 21.8567 22 22.0317 22L25.0079 21.911C25.2705 21.911 25.533 21.8219 25.7081 21.7329C25.8832 21.6438 25.9707 21.5548 25.9707 21.3767C25.9707 21.2877 25.9707 21.1096 25.9707 21.0206C25.7956 20.8425 25.7957 20.7534 25.7957 20.6644Z" fill="white"/>
</svg>
