<svg width="30" height="30" viewBox="0 0 30 30" fill="none" xmlns="http://www.w3.org/2000/svg">
<path d="M15 1.875C8.78662 1.875 3.75 6.91162 3.75 13.125C3.75 16.2306 5.00831 19.0425 7.04344 21.0782C9.07912 23.115 13.875 26.0625 14.1562 29.1562C14.1984 29.6201 14.5343 30 15 30C15.4657 30 15.8016 29.6201 15.8438 29.1562C16.125 26.0625 20.9209 23.115 22.9566 21.0782C24.9917 19.0425 26.25 16.2306 26.25 13.125C26.25 6.91162 21.2134 1.875 15 1.875Z" fill="#FF4433"/>
<path d="M15 17.063C17.1746 17.063 18.9375 15.3001 18.9375 13.1255C18.9375 10.9509 17.1746 9.18799 15 9.18799C12.8254 9.18799 11.0625 10.9509 11.0625 13.1255C11.0625 15.3001 12.8254 17.063 15 17.063Z" fill="white"/>
</svg>
