<svg width="36" height="36" viewBox="0 0 36 36" fill="none" xmlns="http://www.w3.org/2000/svg">
<circle cx="17.8909" cy="17.8909" r="17.8909" fill="#F40000"/>
<path d="M25.6851 16.9186C25.6851 16.5717 25.6272 16.1669 25.6272 15.7042C25.5694 15.2416 25.5116 14.779 25.4537 14.3742C25.3381 13.9115 25.1646 13.5645 24.8176 13.2754C24.5285 12.9863 24.1237 12.8128 23.7189 12.7549C22.3888 12.5814 20.4226 12.5236 17.7625 12.5236C15.1023 12.5236 13.0783 12.5814 11.806 12.7549C11.4012 12.8128 10.9964 12.9863 10.7073 13.2754C10.4181 13.5645 10.1868 13.9115 10.0712 14.3742C9.9555 14.779 9.89768 15.1838 9.89768 15.7042C9.83985 16.1669 9.83984 16.5717 9.83984 16.9186C9.83984 17.2656 9.83984 17.6704 9.83984 18.2487C9.83984 18.827 9.83984 19.2896 9.83984 19.5788C9.83984 19.9258 9.89768 20.3306 9.89768 20.7932C9.95551 21.2558 10.0133 21.7185 10.0712 22.1233C10.1868 22.5859 10.3603 22.9329 10.7073 23.222C10.9964 23.5112 11.4012 23.6847 11.806 23.7425C13.1361 23.916 15.1023 23.9738 17.7625 23.9738C20.4226 23.9738 22.4466 23.916 23.7189 23.7425C24.1237 23.6847 24.5285 23.5112 24.8176 23.222C25.1068 22.9329 25.3381 22.5859 25.4537 22.1233C25.5694 21.7185 25.6272 21.3137 25.6272 20.7932C25.6851 20.3306 25.6851 19.9258 25.6851 19.5788C25.6851 19.2318 25.6851 18.827 25.6851 18.2487C25.6851 17.6704 25.6851 17.2078 25.6851 16.9186ZM20.8274 18.7113L16.2589 21.545C16.2011 21.6028 16.0854 21.6606 15.9697 21.6606C15.8541 21.6606 15.7963 21.6606 15.6806 21.6028C15.5071 21.4872 15.3915 21.3137 15.3915 21.0824V15.3573C15.3915 15.1259 15.5071 14.9524 15.6806 14.8368C15.8541 14.7211 16.0854 14.7211 16.2589 14.8368L20.8274 17.6704C21.0009 17.7861 21.1165 17.9596 21.1165 18.1331C21.1165 18.3065 21.0009 18.5957 20.8274 18.7113Z" fill="white"/>
</svg>
